<svg xmlns="http://www.w3.org/2000/svg" viewBox="0 0 44 100">
<rect width="44" height="100" fill="#F4EEE3"/>
<path d="M18 91 L18 6" stroke="#1E1729" stroke-width="3" stroke-linecap="round" fill="none"/>
<circle cx="18" cy="91" r="10.5" fill="#17140E"/>
<g transform="rotate(-16 18 91)">
  <circle cx="18" cy="91" r="8" fill="#1A2470"/>
  <g stroke="#F4EEE3" stroke-width="0.7" stroke-linecap="round" opacity="0.9">
    <line x1="24.3" y1="91.0" x2="26.0" y2="91.0"/>
    <line x1="24.1" y1="92.6" x2="25.7" y2="93.1"/>
    <line x1="23.5" y1="94.2" x2="24.9" y2="95.0"/>
    <line x1="22.5" y1="95.5" x2="23.7" y2="96.7"/>
    <line x1="21.2" y1="96.5" x2="22.0" y2="97.9"/>
    <line x1="19.6" y1="97.1" x2="20.1" y2="98.7"/>
    <line x1="18.0" y1="97.3" x2="18.0" y2="99.0"/>
    <line x1="16.4" y1="97.1" x2="15.9" y2="98.7"/>
    <line x1="14.9" y1="96.5" x2="14.0" y2="97.9"/>
    <line x1="13.5" y1="95.5" x2="12.3" y2="96.7"/>
    <line x1="12.5" y1="94.2" x2="11.1" y2="95.0"/>
    <line x1="11.9" y1="92.6" x2="10.3" y2="93.1"/>
    <line x1="11.7" y1="91.0" x2="10.0" y2="91.0"/>
    <line x1="11.9" y1="89.4" x2="10.3" y2="88.9"/>
    <line x1="12.5" y1="87.9" x2="11.1" y2="87.0"/>
    <line x1="13.5" y1="86.5" x2="12.3" y2="85.3"/>
    <line x1="14.8" y1="85.5" x2="14.0" y2="84.1"/>
    <line x1="16.4" y1="84.9" x2="15.9" y2="83.3"/>
    <line x1="18.0" y1="84.7" x2="18.0" y2="83.0"/>
    <line x1="19.6" y1="84.9" x2="20.1" y2="83.3"/>
    <line x1="21.2" y1="85.5" x2="22.0" y2="84.1"/>
    <line x1="22.5" y1="86.5" x2="23.7" y2="85.3"/>
    <line x1="23.5" y1="87.8" x2="24.9" y2="87.0"/>
    <line x1="24.1" y1="89.4" x2="25.7" y2="88.9"/>
  </g>
  <path d="M 18.6,91.0 L 18.7,91.1 L 18.7,91.3 L 18.6,91.5 L 18.5,91.7 L 18.4,91.8 L 18.2,92.0 L 18.0,92.1 L 17.8,92.1 L 17.5,92.1 L 17.2,92.0 L 17.0,91.8 L 16.7,91.6 L 16.6,91.3 L 16.5,91.0 L 16.4,90.7 L 16.5,90.3 L 16.6,89.9 L 16.8,89.6 L 17.2,89.3 L 17.5,89.1 L 18.0,89.0 L 18.4,89.0 L 18.9,89.0 L 19.3,89.2 L 19.7,89.5 L 20.1,89.9 L 20.3,90.4 L 20.5,90.9 L 20.5,91.5 L 20.4,92.1 L 20.1,92.6 L 19.8,93.1 L 19.3,93.5 L 18.7,93.8 L 18.1,93.9 L 17.4,94.0 L 16.8,93.8 L 16.1,93.5 L 15.6,93.1 L 15.1,92.5 L 14.8,91.9 L 14.6,91.1 L 14.6,90.4 L 14.7,89.6 L 15.1,88.9 L 15.6,88.2 L 16.2,87.7 L 17.0,87.3 L 17.8,87.1 L 18.7,87.1 L 19.6,87.3 L 20.4,87.7 L 21.1,88.2 L 21.7,89.0 L 22.1,89.8 L 22.3,90.8 L 22.4,91.7 L 22.1,92.7 L 21.7,93.6 L 21.1,94.4 L 20.3,95.1 L 19.3,95.6 L 18.3,95.8 L 17.2,95.8 L 16.1,95.6 L 15.1,95.1 L 14.2,94.4 L 13.5,93.5 L 13.0,92.5 L 12.7,91.4 L 12.7,90.2 L 13.0,89.0 L 13.5,87.9 L 14.2,86.9 L 15.2,86.1 L 16.3,85.6 L 17.6,85.3 L 18.9,85.2 L 20.1,85.5 L 21.3,86.1 L 22.4,86.9 L 23.3,87.9 L 23.9,89.1 L 24.2,90.5 L 24.2,91.9 L 23.9,93.3 L 23.4,94.6 L 22.5,95.7 L 21.4,96.6 L 20.0,97.3"
        fill="none" stroke="#F4EEE3" stroke-width="0.95" stroke-linecap="round" stroke-linejoin="round" opacity="0.9"/>
</g>
<path d="M18 60 L28 68 L18 76 Z" fill="#1E1729"/>
<path d="M18 36 L27 44 L18 52" fill="none" stroke="#1E1729" stroke-width="3" stroke-linecap="round" stroke-linejoin="round"/>
<path d="M18 30 L27 20" fill="none" stroke="#1E1729" stroke-width="3" stroke-linecap="round"/>
<path d="M18 18 L27 8" fill="none" stroke="#1E1729" stroke-width="3" stroke-linecap="round"/>
</svg>
